<svg width="48" height="48" viewBox="0 0 48 48" fill="none" xmlns="http://www.w3.org/2000/svg">
<path d="M13.0526 8H34.9474C36.2874 8 37.5726 8.53233 38.5201 9.47988C39.4677 10.4274 40 11.7126 40 13.0526V34.9474C40 36.2874 39.4677 37.5726 38.5201 38.5201C37.5726 39.4677 36.2874 40 34.9474 40H13.0526C11.7126 40 10.4274 39.4677 9.47988 38.5201C8.53233 37.5726 8 36.2874 8 34.9474V13.0526C8 11.7126 8.53233 10.4274 9.47988 9.47988C10.4274 8.53233 11.7126 8 13.0526 8ZM13.0526 9.68421C12.1593 9.68421 11.3025 10.0391 10.6708 10.6708C10.0391 11.3025 9.68421 12.1593 9.68421 13.0526V32.5726L16.9095 25.3305L21.12 29.5411L29.5411 21.12L38.3158 29.8947V13.0526C38.3158 12.1593 37.9609 11.3025 37.3292 10.6708C36.6975 10.0391 35.8407 9.68421 34.9474 9.68421H13.0526ZM21.12 31.9326L16.9095 27.7221L9.68421 34.9474C9.68421 35.8407 10.0391 36.6975 10.6708 37.3292C11.3025 37.9609 12.1593 38.3158 13.0526 38.3158H34.9474C35.8407 38.3158 36.6975 37.9609 37.3292 37.3292C37.9609 36.6975 38.3158 35.8407 38.3158 34.9474V32.2695L29.5411 23.5116L21.12 31.9326ZM17.2632 13.0526C18.3799 13.0526 19.4508 13.4962 20.2404 14.2859C21.0301 15.0755 21.4737 16.1465 21.4737 17.2632C21.4737 18.3799 21.0301 19.4508 20.2404 20.2404C19.4508 21.0301 18.3799 21.4737 17.2632 21.4737C16.1465 21.4737 15.0755 21.0301 14.2859 20.2404C13.4962 19.4508 13.0526 18.3799 13.0526 17.2632C13.0526 16.1465 13.4962 15.0755 14.2859 14.2859C15.0755 13.4962 16.1465 13.0526 17.2632 13.0526ZM17.2632 14.7368C16.5931 14.7368 15.9506 15.003 15.4768 15.4768C15.003 15.9506 14.7368 16.5931 14.7368 17.2632C14.7368 17.9332 15.003 18.5758 15.4768 19.0495C15.9506 19.5233 16.5931 19.7895 17.2632 19.7895C17.9332 19.7895 18.5758 19.5233 19.0495 19.0495C19.5233 18.5758 19.7895 17.9332 19.7895 17.2632C19.7895 16.5931 19.5233 15.9506 19.0495 15.4768C18.5758 15.003 17.9332 14.7368 17.2632 14.7368Z" fill="#4A4A4A" stroke="#4A4A4A"/>
</svg>
