<svg width="51" height="51" viewBox="0 0 51 51" fill="none" xmlns="http://www.w3.org/2000/svg">
<rect x="0.75" y="0.75" width="48.79" height="48.79" rx="15.25" stroke="#522A70" stroke-width="1.5"/>
<path d="M19.7872 8C19.7872 17.0547 14.9116 25.145 8 25.145C14.9116 25.145 19.7872 33.2353 19.7872 42.29C19.7872 33.2353 24.6628 25.145 31.5744 25.145C24.6628 25.145 19.7872 17.0547 19.7872 8Z" fill="#FFE54D"/>
<path d="M36.3955 8C36.3955 12.5006 33.931 16.5725 30.502 16.5725C33.931 16.5725 36.3955 20.6444 36.3955 25.145C36.3955 20.6444 38.8601 16.5725 42.2891 16.5725C38.8601 16.5725 36.3955 12.5006 36.3955 8Z" fill="#6ADBC6"/>
<path d="M33.7178 25.145C33.7178 29.6456 31.2532 33.7175 27.8242 33.7175C31.2532 33.7175 33.7178 37.7895 33.7178 42.29C33.7178 37.7895 36.1824 33.7175 39.6114 33.7175C36.1824 33.7175 33.7178 29.6456 33.7178 25.145Z" fill="#FF73C0"/>
</svg>
