<svg width="100" height="100" viewBox="0 0 100 100" fill="none" xmlns="http://www.w3.org/2000/svg">
<g clip-path="url(#clip0_3523_10420)">
<path d="M49.957 8.33398C26.957 8.33398 8.33203 27.0007 8.33203 50.0007C8.33203 73.0007 26.957 91.6673 49.957 91.6673C72.9987 91.6673 91.6654 73.0007 91.6654 50.0007C91.6654 27.0007 72.9987 8.33398 49.957 8.33398ZM49.9987 83.334C31.582 83.334 16.6654 68.4173 16.6654 50.0007C16.6654 31.584 31.582 16.6673 49.9987 16.6673C68.4154 16.6673 83.332 31.584 83.332 50.0007C83.332 68.4173 68.4154 83.334 49.9987 83.334ZM52.082 29.1673H45.832V54.1673L67.707 67.2923L70.832 62.1673L52.082 51.0423V29.1673Z" fill="#65558F"/>
</g>
<defs>
<clipPath id="clip0_3523_10420">
<rect width="100" height="100" fill="white"/>
</clipPath>
</defs>
</svg>
