<svg width="29" height="26" viewBox="0 0 29 26" fill="none" xmlns="http://www.w3.org/2000/svg">
<path fill-rule="evenodd" clip-rule="evenodd" d="M11.5307 0C12.4916 0 13.4525 0.365139 14.4134 1.09542C15.3743 0.365139 16.3352 0 17.2961 0H25.9441C26.7086 0 27.4418 0.303709 27.9824 0.844316C28.523 1.38492 28.8268 2.11814 28.8268 2.88268V21.6201C28.8268 22.3846 28.523 23.1178 27.9824 23.6584C27.4418 24.199 26.7086 24.5027 25.9441 24.5027H15.8547C15.8547 25.2984 15.2061 25.9441 14.4134 25.9441C13.6206 25.9441 12.972 25.2955 12.972 24.5027H2.88268C2.11814 24.5027 1.38492 24.199 0.844316 23.6584C0.303709 23.1178 0 22.3846 0 21.6201V2.88268C0 2.11814 0.303709 1.38492 0.844316 0.844316C1.38492 0.303709 2.11814 0 2.88268 0H11.5307ZM11.5307 2.88268H2.88268V21.6201H12.972V4.32401C12.972 3.53128 12.3234 2.88268 11.5307 2.88268ZM25.9441 2.88268H17.2961C16.5033 2.88268 15.8547 3.53128 15.8547 4.32401V21.6201H25.9441V2.88268Z" fill="#522A70"/>
</svg>
