<svg width="200" height="36" viewBox="0 0 200 36" fill="none" xmlns="http://www.w3.org/2000/svg">
<path d="M0.493156 35V29.432H4.90916V6.968H0.493156V1.4H14.3172C18.8292 1.4 22.2532 2.552 24.5892 4.856C26.9572 7.128 28.1412 10.52 28.1412 15.032V21.368C28.1412 25.88 26.9572 29.288 24.5892 31.592C22.2532 33.864 18.8292 35 14.3172 35H0.493156ZM11.2452 29.24H14.4132C16.9732 29.24 18.8452 28.568 20.0292 27.224C21.2132 25.88 21.8052 23.992 21.8052 21.56V14.84C21.8052 12.376 21.2132 10.488 20.0292 9.176C18.8452 7.832 16.9732 7.16 14.4132 7.16H11.2452V29.24ZM44.9419 35.672C42.5739 35.672 40.4459 35.192 38.5579 34.232C36.6699 33.272 35.1819 31.88 34.0939 30.056C33.0059 28.232 32.4619 26.04 32.4619 23.48V22.712C32.4619 20.152 33.0059 17.96 34.0939 16.136C35.1819 14.312 36.6699 12.92 38.5579 11.96C40.4459 11 42.5739 10.52 44.9419 10.52C47.3099 10.52 49.4379 11 51.3259 11.96C53.2139 12.92 54.7019 14.312 55.7899 16.136C56.8779 17.96 57.4219 20.152 57.4219 22.712V23.48C57.4219 26.04 56.8779 28.232 55.7899 30.056C54.7019 31.88 53.2139 33.272 51.3259 34.232C49.4379 35.192 47.3099 35.672 44.9419 35.672ZM44.9419 30.296C46.7979 30.296 48.3339 29.704 49.5499 28.52C50.7659 27.304 51.3739 25.576 51.3739 23.336V22.856C51.3739 20.616 50.7659 18.904 49.5499 17.72C48.3659 16.504 46.8299 15.896 44.9419 15.896C43.0859 15.896 41.5499 16.504 40.3339 17.72C39.1179 18.904 38.5099 20.616 38.5099 22.856V23.336C38.5099 25.576 39.1179 27.304 40.3339 28.52C41.5499 29.704 43.0859 30.296 44.9419 30.296ZM74.1885 35.672C71.8845 35.672 69.7885 35.192 67.9005 34.232C66.0445 33.272 64.5725 31.88 63.4845 30.056C62.3965 28.232 61.8525 26.024 61.8525 23.432V22.76C61.8525 20.168 62.3965 17.96 63.4845 16.136C64.5725 14.312 66.0445 12.92 67.9005 11.96C69.7885 11 71.8845 10.52 74.1885 10.52C76.4605 10.52 78.4125 10.92 80.0445 11.72C81.6765 12.52 82.9885 13.624 83.9805 15.032C85.0045 16.408 85.6765 17.976 85.9965 19.736L80.1405 20.984C80.0125 20.024 79.7245 19.16 79.2765 18.392C78.8285 17.624 78.1885 17.016 77.3565 16.568C76.5565 16.12 75.5485 15.896 74.3325 15.896C73.1165 15.896 72.0125 16.168 71.0205 16.712C70.0605 17.224 69.2925 18.008 68.7165 19.064C68.1725 20.088 67.9005 21.352 67.9005 22.856V23.336C67.9005 24.84 68.1725 26.12 68.7165 27.176C69.2925 28.2 70.0605 28.984 71.0205 29.528C72.0125 30.04 73.1165 30.296 74.3325 30.296C76.1565 30.296 77.5325 29.832 78.4605 28.904C79.4205 27.944 80.0285 26.696 80.2845 25.16L86.1405 26.552C85.7245 28.248 85.0045 29.8 83.9805 31.208C82.9885 32.584 81.6765 33.672 80.0445 34.472C78.4125 35.272 76.4605 35.672 74.1885 35.672ZM109.448 35V7.16H99.6559V1.4H125.576V7.16H115.784V35H109.448ZM129.52 35V11.192H135.568V35H129.52ZM132.544 8.408C131.456 8.408 130.528 8.056 129.76 7.352C129.024 6.648 128.656 5.72 128.656 4.568C128.656 3.416 129.024 2.488 129.76 1.784C130.528 1.08 131.456 0.727998 132.544 0.727998C133.664 0.727998 134.592 1.08 135.328 1.784C136.064 2.488 136.432 3.416 136.432 4.568C136.432 5.72 136.064 6.648 135.328 7.352C134.592 8.056 133.664 8.408 132.544 8.408ZM151.39 35C149.822 35 148.542 34.52 147.55 33.56C146.59 32.568 146.11 31.256 146.11 29.624V16.184H140.158V11.192H146.11V3.8H152.158V11.192H158.686V16.184H152.158V28.568C152.158 29.528 152.606 30.008 153.502 30.008H158.11V35H151.39ZM164.161 35V1.4H170.209V35H164.161ZM187.759 35.672C185.391 35.672 183.295 35.176 181.471 34.184C179.679 33.16 178.271 31.736 177.247 29.912C176.255 28.056 175.759 25.88 175.759 23.384V22.808C175.759 20.312 176.255 18.152 177.247 16.328C178.239 14.472 179.631 13.048 181.423 12.056C183.215 11.032 185.295 10.52 187.663 10.52C189.999 10.52 192.031 11.048 193.759 12.104C195.487 13.128 196.831 14.568 197.791 16.424C198.751 18.248 199.231 20.376 199.231 22.808V24.872H181.903C181.967 26.504 182.575 27.832 183.727 28.856C184.879 29.88 186.287 30.392 187.951 30.392C189.647 30.392 190.895 30.024 191.695 29.288C192.495 28.552 193.103 27.736 193.519 26.84L198.463 29.432C198.015 30.264 197.359 31.176 196.495 32.168C195.663 33.128 194.543 33.96 193.135 34.664C191.727 35.336 189.935 35.672 187.759 35.672ZM181.951 20.36H193.087C192.959 18.984 192.399 17.88 191.407 17.048C190.447 16.216 189.183 15.8 187.615 15.8C185.983 15.8 184.687 16.216 183.727 17.048C182.767 17.88 182.175 18.984 181.951 20.36Z" fill="url(#paint0_linear_1460_8763)"/>
<defs>
<linearGradient id="paint0_linear_1460_8763" x1="99.7695" y1="-12" x2="99.7695" y2="49" gradientUnits="userSpaceOnUse">
<stop stop-color="#8E1149"/>
<stop offset="1" stop-color="#522A70"/>
</linearGradient>
</defs>
</svg>
