<svg width="50" height="48" viewBox="0 0 50 48" fill="none" xmlns="http://www.w3.org/2000/svg">
<path d="M9.78947 40V32.4444L33.3658 9.06667C33.7237 8.71111 34.1263 8.44444 34.5737 8.26667C35.0211 8.08889 35.4684 8 35.9158 8C36.393 8 36.8481 8.08889 37.2812 8.26667C37.7142 8.44444 38.0942 8.71111 38.4211 9.06667L40.9263 11.5556C41.2842 11.8815 41.5526 12.2596 41.7316 12.6898C41.9105 13.12 42 13.5716 42 14.0444C42 14.4889 41.9105 14.9333 41.7316 15.3778C41.5526 15.8222 41.2842 16.2222 40.9263 16.5778L17.3947 40H9.78947ZM13.3684 36.4444H15.8737L33.4553 19.0222L32.2026 17.7333L30.9053 16.4889L13.3684 33.9555V36.4444ZM32.2026 17.7333L30.9053 16.4889L33.4553 19.0222L32.2026 17.7333ZM27.6842 40C29.8912 40 31.9342 39.4518 33.8132 38.3555C35.6921 37.2592 36.6316 35.7333 36.6316 33.7778C36.6316 32.7111 36.3482 31.7926 35.7816 31.0222C35.2149 30.2518 34.4544 29.5852 33.5 29.0222L30.8605 31.6444C31.5465 31.9407 32.0833 32.2666 32.4711 32.6222C32.8588 32.9778 33.0526 33.3629 33.0526 33.7778C33.0526 34.4592 32.508 35.0744 31.4188 35.6231C30.3296 36.1718 29.0848 36.4456 27.6842 36.4444C27.1772 36.4444 26.7525 36.6151 26.4101 36.9564C26.0677 37.2978 25.8959 37.7197 25.8947 38.2222C25.8935 38.7247 26.0653 39.1472 26.4101 39.4898C26.7549 39.8323 27.1796 40.0023 27.6842 40ZM10.8184 26.4L13.5026 23.7333C12.9061 23.4963 12.4361 23.2521 12.0925 23.0009C11.7489 22.7496 11.5778 22.4901 11.5789 22.2222C11.5789 21.8667 11.8474 21.5111 12.3842 21.1555C12.9211 20.8 14.0544 20.2518 15.7842 19.5111C18.4088 18.3852 20.1535 17.363 21.0184 16.4444C21.8833 15.5259 22.3158 14.4889 22.3158 13.3333C22.3158 11.7037 21.6596 10.4077 20.3474 9.44533C19.0351 8.48296 17.3053 8.00119 15.1579 8C13.8158 8 12.6151 8.23704 11.5557 8.71111C10.4963 9.18518 9.68389 9.76296 9.11842 10.4444C8.79035 10.8296 8.65614 11.2593 8.71579 11.7333C8.77544 12.2074 8.99912 12.5926 9.38684 12.8889C9.77456 13.2148 10.207 13.3481 10.6842 13.2889C11.1614 13.2296 11.564 13.037 11.8921 12.7111C12.3096 12.2963 12.7719 12 13.2789 11.8222C13.786 11.6444 14.4123 11.5556 15.1579 11.5556C16.3807 11.5556 17.2832 11.7333 17.8654 12.0889C18.4475 12.4444 18.738 12.8593 18.7368 13.3333C18.7368 13.7481 18.4762 14.1256 17.9548 14.4658C17.4335 14.8059 16.2328 15.4062 14.3526 16.2667C11.9667 17.3037 10.3114 18.2447 9.38684 19.0898C8.46228 19.9348 8 20.979 8 22.2222C8 23.1704 8.25351 23.9781 8.76053 24.6453C9.26754 25.3126 9.95351 25.8975 10.8184 26.4Z" fill="#522A70"/>
</svg>
