<svg width="31" height="32" viewBox="0 0 31 32" fill="none" xmlns="http://www.w3.org/2000/svg">
<path d="M13.352 32C12.632 32 12.0123 31.76 11.4928 31.28C10.9733 30.8 10.6597 30.2133 10.552 29.52L10.192 26.88C9.84533 26.7467 9.51893 26.5867 9.2128 26.4C8.90667 26.2133 8.6064 26.0133 8.312 25.8L5.832 26.84C5.16533 27.1333 4.49867 27.16 3.832 26.92C3.16533 26.68 2.64533 26.2533 2.272 25.64L0.392 22.36C0.0186664 21.7467 -0.0879999 21.0933 0.0720001 20.4C0.232 19.7067 0.592 19.1333 1.152 18.68L3.272 17.08C3.24533 16.8933 3.232 16.7131 3.232 16.5392V15.4592C3.232 15.2864 3.24533 15.1067 3.272 14.92L1.152 13.32C0.592 12.8667 0.232 12.2933 0.0720001 11.6C-0.0879999 10.9067 0.0186664 10.2533 0.392 9.64L2.272 6.36C2.64533 5.74667 3.16533 5.32 3.832 5.08C4.49867 4.84 5.16533 4.86667 5.832 5.16L8.312 6.2C8.60533 5.98667 8.912 5.78667 9.232 5.6C9.552 5.41333 9.872 5.25333 10.192 5.12L10.552 2.48C10.6587 1.78667 10.9723 1.2 11.4928 0.72C12.0133 0.24 12.6331 0 13.352 0H17.112C17.832 0 18.4523 0.24 18.9728 0.72C19.4933 1.2 19.8064 1.78667 19.912 2.48L20.272 5.12C20.6187 5.25333 20.9456 5.41333 21.2528 5.6C21.56 5.78667 21.8597 5.98667 22.152 6.2L24.632 5.16C25.2987 4.86667 25.9653 4.84 26.632 5.08C27.2987 5.32 27.8187 5.74667 28.192 6.36L30.072 9.64C30.4453 10.2533 30.552 10.9067 30.392 11.6C30.232 12.2933 29.872 12.8667 29.312 13.32L27.192 14.92C27.2187 15.1067 27.232 15.2869 27.232 15.4608V16.5392C27.232 16.7131 27.2053 16.8933 27.152 17.08L29.272 18.68C29.832 19.1333 30.192 19.7067 30.352 20.4C30.512 21.0933 30.4053 21.7467 30.032 22.36L28.112 25.64C27.7387 26.2533 27.2187 26.68 26.552 26.92C25.8853 27.16 25.2187 27.1333 24.552 26.84L22.152 25.8C21.8587 26.0133 21.552 26.2133 21.232 26.4C20.912 26.5867 20.592 26.7467 20.272 26.88L19.912 29.52C19.8053 30.2133 19.4923 30.8 18.9728 31.28C18.4533 31.76 17.8331 32 17.112 32H13.352ZM13.632 28.8H16.792L17.352 24.56C18.1787 24.3467 18.9456 24.0336 19.6528 23.6208C20.36 23.208 21.0064 22.7077 21.592 22.12L25.552 23.76L27.112 21.04L23.672 18.44C23.8053 18.0667 23.8987 17.6736 23.952 17.2608C24.0053 16.848 24.032 16.4277 24.032 16C24.032 15.5723 24.0053 15.1525 23.952 14.7408C23.8987 14.3291 23.8053 13.9355 23.672 13.56L27.112 10.96L25.552 8.24L21.592 9.92C21.0053 9.30667 20.3589 8.7936 19.6528 8.3808C18.9467 7.968 18.1797 7.6544 17.352 7.44L16.832 3.2H13.672L13.112 7.44C12.2853 7.65333 11.5189 7.96693 10.8128 8.3808C10.1067 8.79467 9.45973 9.2944 8.872 9.88L4.912 8.24L3.352 10.96L6.792 13.52C6.65867 13.92 6.56533 14.32 6.512 14.72C6.45867 15.12 6.432 15.5467 6.432 16C6.432 16.4267 6.45867 16.84 6.512 17.24C6.56533 17.64 6.65867 18.04 6.792 18.44L3.352 21.04L4.912 23.76L8.872 22.08C9.45867 22.6933 10.1056 23.2069 10.8128 23.6208C11.52 24.0347 12.2864 24.3477 13.112 24.56L13.632 28.8ZM15.312 21.6C16.8587 21.6 18.1787 21.0533 19.272 19.96C20.3653 18.8667 20.912 17.5467 20.912 16C20.912 14.4533 20.3653 13.1333 19.272 12.04C18.1787 10.9467 16.8587 10.4 15.312 10.4C13.7387 10.4 12.4123 10.9467 11.3328 12.04C10.2533 13.1333 9.71307 14.4533 9.712 16C9.71093 17.5467 10.2512 18.8667 11.3328 19.96C12.4144 21.0533 13.7408 21.6 15.312 21.6Z" fill="#4A4A4A"/>
</svg>
