<svg width="64" height="64" viewBox="0 0 64 64" fill="none" xmlns="http://www.w3.org/2000/svg">
<g clip-path="url(#clip0_1233_1269)">
<path d="M31.2871 62C47.8557 62 61.2871 48.5685 61.2871 32C61.2871 15.4315 47.8557 2 31.2871 2C14.7186 2 1.28711 15.4315 1.28711 32C1.28711 48.5685 14.7186 62 31.2871 62Z" fill="white"/>
<path d="M31.2871 62C47.8557 62 61.2871 48.5685 61.2871 32C61.2871 15.4315 47.8557 2 31.2871 2C14.7186 2 1.28711 15.4315 1.28711 32C1.28711 48.5685 14.7186 62 31.2871 62Z" fill="#00BE3C" fill-opacity="0.2"/>
<path d="M48.9855 34.3998C48.5855 33.8998 47.8855 33.9998 47.0855 33.9998H15.4854C14.6854 33.9998 13.9854 33.8998 13.5854 34.3998C9.68545 39.3998 14.2854 53.9998 31.2854 53.9998C48.2855 53.9998 52.8855 39.3998 48.9855 34.3998Z" fill="#00BE3C"/>
<path d="M46.2846 36H16.3846C14.2846 36 14.2846 40 16.2846 40H46.2846C48.2846 40 48.2846 36 46.2846 36Z" fill="white"/>
<path d="M19.7871 28C22.5485 28 24.7871 25.7614 24.7871 23C24.7871 20.2386 22.5485 18 19.7871 18C17.0257 18 14.7871 20.2386 14.7871 23C14.7871 25.7614 17.0257 28 19.7871 28Z" fill="#00BE3C"/>
<path d="M42.7871 28C45.5485 28 47.7871 25.7614 47.7871 23C47.7871 20.2386 45.5485 18 42.7871 18C40.0257 18 37.7871 20.2386 37.7871 23C37.7871 25.7614 40.0257 28 42.7871 28Z" fill="#00BE3C"/>
</g>
<defs>
<clipPath id="clip0_1233_1269">
<rect width="64" height="64" fill="white"/>
</clipPath>
</defs>
</svg>
