<svg width="48" height="48" viewBox="0 0 48 48" fill="none" xmlns="http://www.w3.org/2000/svg">
<path fill-rule="evenodd" clip-rule="evenodd" d="M11 38.3447C11 37.9057 11.1712 37.4846 11.4759 37.1742C11.7806 36.8638 12.1939 36.6894 12.6249 36.6894H35.3733C35.8043 36.6894 36.2176 36.8638 36.5223 37.1742C36.827 37.4846 36.9982 37.9057 36.9982 38.3447C36.9982 38.7837 36.827 39.2047 36.5223 39.5152C36.2176 39.8256 35.8043 40 35.3733 40H12.6249C12.1939 40 11.7806 39.8256 11.4759 39.5152C11.1712 39.2047 11 38.7837 11 38.3447ZM14.2498 31.1673V27.0047L17.0446 24.2282L20.966 28.276L18.2188 31.1673H14.2498ZM23.23 25.8967L33.4451 15.1571C33.5468 15.0499 33.6262 14.923 33.6784 14.7838C33.7306 14.6446 33.7546 14.496 33.7489 14.3471C33.7432 14.1982 33.708 14.052 33.6454 13.9173C33.5827 13.7827 33.494 13.6623 33.3845 13.5636L31.1963 11.5882L33.352 9.10966L35.5401 11.085C35.9783 11.4804 36.3333 11.9622 36.5837 12.5012C36.834 13.0402 36.9746 13.6254 36.9969 14.2212C37.0191 14.8171 36.9227 15.4115 36.7132 15.9683C36.5038 16.5252 36.1858 17.033 35.7785 17.4613L19.5946 34.4779H11V25.6098L27.4525 9.25532C28.2359 8.47635 29.2797 8.02832 30.3741 8.0013C31.4685 7.97427 32.5324 8.37026 33.352 9.10966L31.1963 11.5882C30.9916 11.4037 30.7261 11.3048 30.4529 11.3113C30.1796 11.3179 29.9189 11.4294 29.723 11.6235L19.3693 21.9152L23.23 25.8967Z" fill="#4A4A4A"/>
</svg>
