<svg width="100" height="100" viewBox="0 0 100 100" fill="none" xmlns="http://www.w3.org/2000/svg">
<g clip-path="url(#clip0_3523_10430)">
<path d="M81.168 51.5417C74.2513 33.5417 48.543 33.3333 58.293 4.125C39.668 12.5 24.918 34.0417 39.5013 62.5C18.8763 53.8333 27.918 32.125 27.918 32.125C27.918 32.125 16.668 39.0417 16.668 59.9583C18.2513 83.2917 37.9596 90.4583 45.043 91.375C55.168 92.6667 66.1263 90.7917 74.0013 83.5833C82.668 75.5417 85.8346 62.7083 81.168 51.5417ZM42.5013 72.5C48.5013 71.0417 51.5846 66.7083 52.418 62.875C53.793 56.9167 48.418 51.0833 52.043 41.6667C53.418 49.4583 65.668 54.3333 65.668 62.8333C66.0013 73.375 54.5846 82.4167 42.5013 72.5Z" fill="#65558F"/>
</g>
<defs>
<clipPath id="clip0_3523_10430">
<rect width="100" height="100" fill="white"/>
</clipPath>
</defs>
</svg>
