<svg width="7" height="28" viewBox="0 0 7 28" fill="none" xmlns="http://www.w3.org/2000/svg">
<path d="M3.48077 27.8462C2.52356 27.8462 1.70413 27.5053 1.02248 26.8237C0.340825 26.142 0 25.3226 0 24.3654C0 23.4082 0.340825 22.5887 1.02248 21.9071C1.70413 21.2254 2.52356 20.8846 3.48077 20.8846C4.43798 20.8846 5.25741 21.2254 5.93906 21.9071C6.62071 22.5887 6.96154 23.4082 6.96154 24.3654C6.96154 25.3226 6.62071 26.142 5.93906 26.8237C5.25741 27.5053 4.43798 27.8462 3.48077 27.8462ZM3.48077 17.4038C2.52356 17.4038 1.70413 17.063 1.02248 16.3814C0.340825 15.6997 0 14.8803 0 13.9231C0 12.9659 0.340825 12.1464 1.02248 11.4648C1.70413 10.7831 2.52356 10.4423 3.48077 10.4423C4.43798 10.4423 5.25741 10.7831 5.93906 11.4648C6.62071 12.1464 6.96154 12.9659 6.96154 13.9231C6.96154 14.8803 6.62071 15.6997 5.93906 16.3814C5.25741 17.063 4.43798 17.4038 3.48077 17.4038ZM3.48077 6.96154C2.52356 6.96154 1.70413 6.62071 1.02248 5.93906C0.340825 5.25741 0 4.43798 0 3.48077C0 2.52356 0.340825 1.70413 1.02248 1.02248C1.70413 0.340825 2.52356 0 3.48077 0C4.43798 0 5.25741 0.340825 5.93906 1.02248C6.62071 1.70413 6.96154 2.52356 6.96154 3.48077C6.96154 4.43798 6.62071 5.25741 5.93906 5.93906C5.25741 6.62071 4.43798 6.96154 3.48077 6.96154Z" fill="#160022"/>
</svg>
