<svg width="105" height="113" viewBox="0 0 105 113" fill="none" xmlns="http://www.w3.org/2000/svg">
<g opacity="0.8" filter="url(#filter0_d_3164_10200)">
<path fill-rule="evenodd" clip-rule="evenodd" d="M26.8229 69.8959L30.4305 59.073H34.968L38.5756 69.8959L49.3985 73.5035V78.041L38.5756 81.6486L34.968 92.4715H30.4305L26.8229 81.6486L16 78.041V73.5035L26.8229 69.8959Z" fill="#F4F4F4"/>
<path d="M57.8286 12.0002C57.5808 11.9999 57.327 12 57.0668 12.0001L56.6864 12.0002H57.8286Z" fill="#F4F4F4"/>
<path d="M56.6137 12.0003L47.6805 12.0002C44.4721 12.0002 41.8241 12.0002 39.667 12.1764C37.4267 12.3594 35.3672 12.7523 33.4328 13.7379C30.4329 15.2664 27.9939 17.7054 26.4654 20.7053C25.4798 22.6397 25.0869 24.6992 24.9039 26.9395C24.7277 29.0966 24.7277 31.7445 24.7277 34.9529V51.8577H38.6779L42.6636 63.815L56.6137 67.8007V83.7438H65.5471C68.7555 83.7438 71.4034 83.7438 73.5605 83.5676C75.8008 83.3846 77.8603 82.9917 79.7947 82.0061C82.7946 80.4776 85.2336 78.0386 86.7621 75.0387C87.7477 73.1043 88.1406 71.0449 88.3236 68.8045C88.4998 66.6474 88.4998 63.9995 88.4997 60.7911V43.8862H60.5995C58.3982 43.8862 56.6137 42.1018 56.6137 39.9005V12.0003Z" fill="#F4F4F4"/>
<path d="M88.4997 43.8393L88.4999 43.4332C88.5 43.171 88.5001 42.9154 88.4997 42.6658V43.8393Z" fill="#F4F4F4"/>
<path d="M87.7109 35.9147C87.3248 34.7333 86.8013 33.5997 86.1504 32.5374C85.1594 30.9203 83.8066 29.5687 82.0161 27.78L72.7201 18.484C70.9313 16.6935 69.5797 15.3406 67.9626 14.3496C66.9003 13.6987 65.7667 13.1752 64.5852 12.7891V35.9147H87.7109Z" fill="#F4F4F4"/>
</g>
<defs>
<filter id="filter0_d_3164_10200" x="0" y="0" width="104.5" height="112.471" filterUnits="userSpaceOnUse" color-interpolation-filters="sRGB">
<feFlood flood-opacity="0" result="BackgroundImageFix"/>
<feColorMatrix in="SourceAlpha" type="matrix" values="0 0 0 0 0 0 0 0 0 0 0 0 0 0 0 0 0 0 127 0" result="hardAlpha"/>
<feOffset dy="4"/>
<feGaussianBlur stdDeviation="8"/>
<feComposite in2="hardAlpha" operator="out"/>
<feColorMatrix type="matrix" values="0 0 0 0 1 0 0 0 0 1 0 0 0 0 1 0 0 0 0.25 0"/>
<feBlend mode="normal" in2="BackgroundImageFix" result="effect1_dropShadow_3164_10200"/>
<feBlend mode="normal" in="SourceGraphic" in2="effect1_dropShadow_3164_10200" result="shape"/>
</filter>
</defs>
</svg>
