<svg width="80" height="80" viewBox="0 0 80 80" fill="none" xmlns="http://www.w3.org/2000/svg">
<g opacity="0.3">
<path d="M46.6313 8.56474H22.8541C19.6595 8.5647 17.0229 8.56466 14.8751 8.74014C12.6444 8.9224 10.5937 9.31356 8.66763 10.295C5.68066 11.8169 3.25216 14.2454 1.73022 17.2324C0.748818 19.1585 0.357653 21.2091 0.175393 23.4398C-8.79221e-05 25.5876 -4.74337e-05 28.2242 1.63368e-06 31.4188V57.1459C-8.39248e-06 57.7986 -1.80613e-05 58.4282 0.00147002 59.0349L15.7399 45.0452L25.5016 52.8546L46.428 31.9283L31.7488 26.4236V14.5177L46.6313 8.56474Z" fill="white"/>
<path d="M50.2364 39.3448L26.0907 63.4905L16.0093 55.4254L0.806276 68.9392C1.03503 69.7596 1.33469 70.5561 1.73022 71.3324C3.25216 74.3193 5.68065 76.7478 8.66764 78.2698C10.5937 79.2512 12.6444 79.6424 14.8751 79.8246C17.0229 80.0001 19.6595 80.0001 22.854 80H48.5812C51.7758 80.0001 54.4124 80.0001 56.5602 79.8246C58.7909 79.6424 60.8415 79.2512 62.7676 78.2698C65.7546 76.7478 68.1831 74.3194 69.705 71.3324C70.6864 69.4063 71.0776 67.3557 71.2599 65.1249C71.4353 62.9771 71.4353 60.3406 71.4353 57.146V32.3765L65.4821 48.251H53.5762L50.2364 39.3448Z" fill="white"/>
<path fill-rule="evenodd" clip-rule="evenodd" d="M52.9999 13.9411L57.6469 0H61.4119L66.0589 13.9411L80 18.5881V22.3531L66.0589 27.0001L61.4119 40.9412H57.6469L52.9999 27.0001L39.0588 22.3531V18.5881L52.9999 13.9411Z" fill="white"/>
</g>
</svg>
