<svg width="105" height="80" viewBox="0 0 105 80" fill="none" xmlns="http://www.w3.org/2000/svg">
<g opacity="0.3">
<path d="M84.4922 0L80.5422 11.8223L68.6923 15.7631V20.4601L80.5422 24.4009L84.4922 36.2232H89.2001L93.1501 24.4009L105 20.4601V15.7631L93.1501 11.8223L89.2001 0H84.4922Z" fill="white"/>
<path d="M0 5.7339H29.7758V15.636H19.8505V70.0979H29.7758V80H0V70.0979H9.92526V15.636H0V5.7339Z" fill="white"/>
<path d="M51.3868 42.1476L57.1977 24.7554H61.9057L67.7166 42.1476L85.1495 47.9451V52.6421L67.7166 58.4395L61.9057 75.8318H57.1977L51.3868 58.4395L33.9539 52.6421V47.9451L51.3868 42.1476Z" fill="white"/>
</g>
</svg>
