<svg width="112" height="112" viewBox="0 0 112 112" fill="none" xmlns="http://www.w3.org/2000/svg">
<g opacity="0.8" filter="url(#filter0_d_3164_10207)">
<path d="M62.6313 20.5647H38.8541C35.6595 20.5647 33.0229 20.5647 30.8751 20.7401C28.6444 20.9224 26.5937 21.3136 24.6676 22.295C21.6807 23.8169 19.2522 26.2454 17.7302 29.2324C16.7488 31.1585 16.3577 33.2091 16.1754 35.4398C15.9999 37.5876 16 40.2242 16 43.4188V69.1459C16 69.7986 16 70.4282 16.0015 71.0349L31.7399 57.0452L41.5016 64.8546L62.428 43.9283L47.7488 38.4236V26.5177L62.6313 20.5647Z" fill="#F4F4F4"/>
<path d="M66.2364 51.3448L42.0907 75.4905L32.0093 67.4254L16.8063 80.9392C17.035 81.7596 17.3347 82.5561 17.7302 83.3324C19.2522 86.3193 21.6807 88.7478 24.6676 90.2698C26.5937 91.2512 28.6444 91.6424 30.8751 91.8246C33.0229 92.0001 35.6595 92.0001 38.854 92H64.5812C67.7758 92.0001 70.4124 92.0001 72.5602 91.8246C74.7909 91.6424 76.8415 91.2512 78.7676 90.2698C81.7546 88.7478 84.1831 86.3194 85.705 83.3324C86.6864 81.4063 87.0776 79.3557 87.2599 77.1249C87.4353 74.9771 87.4353 72.3406 87.4353 69.146V44.3765L81.4821 60.251H69.5762L66.2364 51.3448Z" fill="#F4F4F4"/>
<path fill-rule="evenodd" clip-rule="evenodd" d="M68.9999 25.9411L73.6469 12H77.4119L82.0589 25.9411L96 30.5881V34.3531L82.0589 39.0001L77.4119 52.9412H73.6469L68.9999 39.0001L55.0588 34.3531V30.5881L68.9999 25.9411Z" fill="#F4F4F4"/>
</g>
<defs>
<filter id="filter0_d_3164_10207" x="0" y="0" width="112" height="112" filterUnits="userSpaceOnUse" color-interpolation-filters="sRGB">
<feFlood flood-opacity="0" result="BackgroundImageFix"/>
<feColorMatrix in="SourceAlpha" type="matrix" values="0 0 0 0 0 0 0 0 0 0 0 0 0 0 0 0 0 0 127 0" result="hardAlpha"/>
<feOffset dy="4"/>
<feGaussianBlur stdDeviation="8"/>
<feComposite in2="hardAlpha" operator="out"/>
<feColorMatrix type="matrix" values="0 0 0 0 1 0 0 0 0 1 0 0 0 0 1 0 0 0 0.25 0"/>
<feBlend mode="normal" in2="BackgroundImageFix" result="effect1_dropShadow_3164_10207"/>
<feBlend mode="normal" in="SourceGraphic" in2="effect1_dropShadow_3164_10207" result="shape"/>
</filter>
</defs>
</svg>
