<svg width="73" height="81" viewBox="0 0 73 81" fill="none" xmlns="http://www.w3.org/2000/svg">
<g opacity="0.3">
<path fill-rule="evenodd" clip-rule="evenodd" d="M10.8229 57.8959L14.4305 47.073H18.968L22.5756 57.8959L33.3985 61.5035V66.041L22.5756 69.6486L18.968 80.4715H14.4305L10.8229 69.6486L0 66.041V61.5035L10.8229 57.8959Z" fill="white"/>
<path d="M41.8286 0.000243271C41.5808 -0.000121426 41.327 -7.04849e-07 41.0668 0.000123122L40.6864 0.000243271H41.8286Z" fill="white"/>
<path d="M40.6137 0.0002514L31.6805 0.000249509C28.4721 0.000198669 25.8241 0.000156855 23.667 0.176396C21.4267 0.359443 19.3672 0.752295 17.4328 1.73793C14.4329 3.26644 11.9939 5.70541 10.4654 8.70528C9.47979 10.6397 9.08694 12.6992 8.90389 14.9395C8.72765 17.0966 8.72769 19.7445 8.72774 22.9529V39.8577H22.6779L26.6636 51.815L40.6137 55.8007V71.7438H49.5471C52.7555 71.7438 55.4034 71.7439 57.5605 71.5676C59.8008 71.3846 61.8603 70.9917 63.7947 70.0061C66.7946 68.4776 69.2336 66.0386 70.7621 63.0387C71.7477 61.1043 72.1406 59.0449 72.3236 56.8045C72.4998 54.6474 72.4998 51.9995 72.4997 48.7911V31.8862H44.5995C42.3982 31.8862 40.6137 30.1018 40.6137 27.9005V0.0002514Z" fill="white"/>
<path d="M72.4997 31.8393L72.4999 31.4332C72.5 31.171 72.5001 30.9154 72.4997 30.6658V31.8393Z" fill="white"/>
<path d="M71.7109 23.9147C71.3248 22.7333 70.8013 21.5997 70.1504 20.5374C69.1594 18.9203 67.8066 17.5687 66.0161 15.78L56.7201 6.48399C54.9313 4.69347 53.5797 3.34058 51.9626 2.34961C50.9003 1.69865 49.7667 1.17522 48.5852 0.789093V23.9147H71.7109Z" fill="white"/>
</g>
</svg>
