<svg width="92" height="92" viewBox="0 0 92 92" fill="none" xmlns="http://www.w3.org/2000/svg">
<g clip-path="url(#clip0_3523_10413)">
<path d="M20.0499 7.66602C15.4882 7.66602 11.9232 11.6527 12.4216 16.176L19.2066 77.5477C19.6666 81.381 22.8866 84.3327 26.8349 84.3327H65.1682C69.1166 84.3327 72.3366 81.381 72.7966 77.5477L79.5816 16.176C80.0799 11.6527 76.5149 7.66602 71.9532 7.66602H20.0499ZM46.0016 72.8327C39.6382 72.8327 34.5016 67.696 34.5016 61.3327C34.5016 55.391 41.4399 46.191 44.5449 42.396C45.3116 41.4377 46.7299 41.4377 47.4966 42.396C50.6016 46.2294 57.5399 55.391 57.5399 61.3327C57.5016 67.696 52.3649 72.8327 46.0016 72.8327ZM70.2666 30.666H21.7366L20.5099 19.5877C20.2799 17.326 22.0432 15.3327 24.3432 15.3327H67.6599C69.9216 15.3327 71.7232 17.326 71.4549 19.5877L70.2666 30.666Z" fill="#65558F"/>
</g>
<defs>
<clipPath id="clip0_3523_10413">
<rect width="92" height="92" fill="white"/>
</clipPath>
</defs>
</svg>
