<svg width="32" height="32" viewBox="0 0 32 32" fill="none" xmlns="http://www.w3.org/2000/svg">
<path d="M18.6525 3.4259H9.14165C7.86381 3.42588 6.80916 3.42586 5.95004 3.49605C5.05774 3.56896 4.2375 3.72542 3.46705 4.11799C2.27226 4.72676 1.30087 5.69816 0.692089 6.89295C0.299527 7.6634 0.143061 8.48364 0.0701572 9.37594C-3.51689e-05 10.2351 -1.89735e-05 11.2897 6.53471e-07 12.5675V22.8584C-3.35699e-06 23.1195 -7.22452e-06 23.3713 0.000588007 23.614L6.29596 18.0181L10.2007 21.1418L18.5712 12.7713L12.6995 10.5694V5.80707L18.6525 3.4259Z" fill="#522A70"/>
<path d="M20.0946 15.7379L10.4363 25.3962L6.40374 22.1702L0.322511 27.5757C0.414011 27.9038 0.533875 28.2224 0.692089 28.533C1.30087 29.7277 2.27226 30.6991 3.46705 31.3079C4.2375 31.7005 5.05774 31.8569 5.95004 31.9298C6.80915 32 7.86378 32 9.14161 32H19.4325C20.7103 32 21.765 32 22.6241 31.9298C23.5164 31.8569 24.3366 31.7005 25.1071 31.3079C26.3018 30.6991 27.2732 29.7277 27.882 28.533C28.2746 27.7625 28.431 26.9423 28.5039 26.05C28.5741 25.1909 28.5741 24.1362 28.5741 22.8584V12.9506L26.1928 19.3004H21.4305L20.0946 15.7379Z" fill="#522A70"/>
<path fill-rule="evenodd" clip-rule="evenodd" d="M21.1999 5.57644L23.0588 0H24.5647L26.4236 5.57644L32 7.43525V8.94124L26.4236 10.8001L24.5647 16.3765H23.0588L21.1999 10.8001L15.6235 8.94124V7.43525L21.1999 5.57644Z" fill="#522A70"/>
</svg>
