<svg width="21" height="21" viewBox="0 0 21 21" fill="none" xmlns="http://www.w3.org/2000/svg">
<path d="M11.75 2.15811H5.7587C4.95374 2.1581 4.28937 2.15809 3.74818 2.20231C3.18608 2.24823 2.66937 2.3468 2.18404 2.59409C1.43139 2.97758 0.819469 3.5895 0.435975 4.34215C0.188684 4.82749 0.0901201 5.34419 0.0441949 5.90629C-2.21543e-05 6.44748 -1.19522e-05 7.11184 4.11648e-07 7.9168V14.3994C-2.11471e-06 14.5639 -4.55102e-06 14.7225 0.00037041 14.8754L3.96608 11.3503L6.42581 13.3181L11.6988 8.04517L7.99994 6.65811V3.65811L11.75 2.15811Z" fill="#522A70"/>
<path d="M12.6584 9.91397L6.57425 15.9981L4.03398 13.9659L0.203163 17.3711C0.260802 17.5778 0.33631 17.7785 0.435975 17.9741C0.819469 18.7267 1.43139 19.3386 2.18404 19.7221C2.66937 19.9694 3.18608 20.068 3.74818 20.1139C4.28937 20.1581 4.95372 20.1581 5.75868 20.1581H12.2413C13.0463 20.1581 13.7106 20.1581 14.2518 20.1139C14.8139 20.068 15.3306 19.9694 15.816 19.7221C16.5686 19.3386 17.1805 18.7267 17.564 17.9741C17.8113 17.4887 17.9099 16.972 17.9558 16.4099C18 15.8688 18 15.2044 18 14.3994V8.15811L16.4999 12.1581H13.4999L12.6584 9.91397Z" fill="#522A70"/>
<path fill-rule="evenodd" clip-rule="evenodd" d="M13.3547 3.51283L14.5257 0H15.4743L16.6453 3.51283L20.1581 4.68377V5.63246L16.6453 6.8034L15.4743 10.3162H14.5257L13.3547 6.8034L9.84189 5.63246V4.68377L13.3547 3.51283Z" fill="#522A70"/>
</svg>
