<svg width="64" height="64" viewBox="0 0 64 64" fill="none" xmlns="http://www.w3.org/2000/svg">
<g clip-path="url(#clip0_1233_1285)">
<path fill-rule="evenodd" clip-rule="evenodd" d="M32 -6.10352e-05C40.4869 -6.10352e-05 48.6263 3.37136 54.6274 9.37252C60.6286 15.3737 64 23.513 64 31.9999C64 40.4869 60.6286 48.6262 54.6274 54.6274C48.6263 60.6285 40.4869 63.9999 32 63.9999C23.5131 63.9999 15.3737 60.6285 9.37258 54.6274C3.37142 48.6262 0 40.4869 0 31.9999C0 23.513 3.37142 15.3737 9.37258 9.37252C15.3737 3.37136 23.5131 -6.10352e-05 32 -6.10352e-05Z" fill="white"/>
<path d="M49.7773 5.39252C50.9339 6.1652 52.042 7.01739 53.0967 7.94232L51.7803 9.44427C52.2709 9.8746 52.7485 10.3227 53.2129 10.787C53.6772 11.2514 54.1253 11.729 54.5557 12.2197L56.0566 10.9023C56.9816 11.9569 57.8337 13.0651 58.6064 14.2216H58.6074L56.9443 15.3329C57.6732 16.4239 58.3283 17.5594 58.9062 18.7314L60.6973 17.8466C61.3151 19.0995 61.8507 20.391 62.2998 21.7138L60.4082 22.3564C60.8283 23.5938 61.1678 24.8605 61.4238 26.1474L63.3848 25.7568V25.7558C63.6563 27.1203 63.837 28.507 63.9287 29.9072L61.9355 30.038C61.9782 30.6891 62 31.3434 62 31.9999C62 32.6565 61.9782 33.3108 61.9355 33.9619L63.9287 34.0917C63.837 35.4919 63.6562 36.8785 63.3848 38.2431L61.4238 37.8525C61.1678 39.1394 60.8283 40.406 60.4082 41.6435L62.2998 42.2851C61.8508 43.6079 61.3151 44.8994 60.6973 46.1523L58.9062 45.2685C58.3283 46.4405 57.6732 47.576 56.9443 48.6669L58.6064 49.7773C57.8337 50.9338 56.9816 52.042 56.0566 53.0966L54.5557 51.7802C54.1253 52.2709 53.6772 52.7485 53.2129 53.2128C52.7485 53.6772 52.2709 54.1253 51.7803 54.5556L53.0967 56.0566C52.042 56.9816 50.9339 57.8337 49.7773 58.6064L48.667 56.9443C47.5761 57.6732 46.4405 58.3283 45.2686 58.9062L46.1523 60.6972C44.8995 61.315 43.6079 61.8507 42.2852 62.2997L41.6436 60.4081C40.4061 60.8282 39.1394 61.1678 37.8525 61.4238L38.2432 63.3847C36.8786 63.6562 35.492 63.837 34.0918 63.9286L33.9619 61.9355C33.3108 61.9781 32.6565 61.9999 32 61.9999C31.3435 61.9999 30.6892 61.9781 30.0381 61.9355L29.9072 63.9286C28.507 63.8369 27.1204 63.6562 25.7559 63.3847H25.7568L26.1475 61.4238C24.8606 61.1678 23.5939 60.8282 22.3564 60.4081L21.7139 62.2997C20.3911 61.8507 19.0995 61.3151 17.8467 60.6972L18.7314 58.9062C17.5595 58.3283 16.4239 57.6732 15.333 56.9443L14.2217 58.6064C13.0652 57.8337 11.957 56.9816 10.9023 56.0566L12.2197 54.5556C11.7291 54.1253 11.2515 53.6772 10.7871 53.2128L10.4414 52.8622C10.0995 52.509 9.76702 52.1481 9.44434 51.7802L7.94238 53.0966C7.01745 52.042 6.16526 50.9338 5.39258 49.7773L7.05566 48.6669C6.32676 47.576 5.67167 46.4405 5.09375 45.2685L3.30176 46.1523C2.68396 44.8994 2.14824 43.6079 1.69922 42.2851L3.5918 41.6435C3.17171 40.406 2.83217 39.1394 2.57617 37.8525L0.615234 38.2431H0.614258C0.342814 36.8786 0.161985 35.4919 0.0703125 34.0917L2.06445 33.9619C2.02181 33.3108 2 32.6565 2 31.9999C2 31.3434 2.02181 30.6891 2.06445 30.038L0.0703125 29.9072C0.162027 28.507 0.342774 27.1203 0.614258 25.7558L0.615234 25.7568L2.57617 26.1474C2.83217 24.8605 3.17171 23.5938 3.5918 22.3564L1.69922 21.7138C2.14828 20.3911 2.68393 19.0994 3.30176 17.8466L5.09375 18.7314C5.67167 17.5594 6.32676 16.4239 7.05566 15.3329L5.39258 14.2216C6.16527 13.0652 7.01745 11.9569 7.94238 10.9023L9.44434 12.2197C9.76702 11.8517 10.0995 11.4909 10.4414 11.1376L10.7871 10.787C11.2515 10.3227 11.7291 9.8746 12.2197 9.44427L10.9023 7.94232C11.957 7.01739 13.0652 6.16521 14.2217 5.39252L15.333 7.0556C16.4239 6.3267 17.5595 5.67161 18.7314 5.09369L17.8467 3.3017C19.0995 2.68387 20.3911 2.14821 21.7139 1.69916L22.3564 3.59174C23.5939 3.17165 24.8606 2.83211 26.1475 2.57611L25.7568 0.615173L25.7559 0.614197C27.1204 0.342713 28.5071 0.161966 29.9072 0.0702515L30.0381 2.06439C30.6892 2.02175 31.3435 1.99994 32 1.99994C32.6565 1.99994 33.3108 2.02175 33.9619 2.06439L34.0918 0.0702515C35.492 0.161924 36.8786 0.342753 38.2432 0.614197V0.615173L37.8525 2.57611C39.1394 2.83211 40.4061 3.17165 41.6436 3.59174L42.2852 1.69916C43.6079 2.14818 44.8995 2.6839 46.1523 3.3017L45.2686 5.09369C46.4405 5.67161 47.5761 6.3267 48.667 7.0556L49.7773 5.39252Z" stroke="black" stroke-opacity="0.2" stroke-width="4" stroke-dasharray="5 5"/>
</g>
<defs>
<clipPath id="clip0_1233_1285">
<rect width="64" height="64" fill="white"/>
</clipPath>
</defs>
</svg>
