<svg width="48" height="48" viewBox="0 0 48 48" fill="none" xmlns="http://www.w3.org/2000/svg">
<path d="M35.6923 12.9231H12.4615C11.2783 12.9231 10.1435 13.3931 9.30675 14.2298C8.47005 15.0665 8 16.2013 8 17.3846V29.5385C8 30.6809 8.45385 31.7766 9.26169 32.5845C10.0695 33.3923 11.1652 33.8462 12.3077 33.8462H12.9231V36.8985C12.9231 37.721 13.2498 38.5099 13.8315 39.0916C14.4131 39.6732 15.202 40 16.0246 40H31.9754C32.798 40 33.5869 39.6732 34.1685 39.0916C34.7502 38.5099 35.0769 37.721 35.0769 36.8985V33.8462H35.6923C36.8348 33.8462 37.9305 33.3923 38.7383 32.5845C39.5462 31.7766 40 30.6809 40 29.5385V17.2308C40 16.0883 39.5462 14.9926 38.7383 14.1848C37.9305 13.3769 36.8348 12.9231 35.6923 12.9231ZM32.6154 36.8985C32.6148 37.068 32.5472 37.2304 32.4273 37.3503C32.3074 37.4702 32.1449 37.5379 31.9754 37.5385H16.0246C15.8551 37.5379 15.6926 37.4702 15.5727 37.3503C15.4528 37.2304 15.3852 37.068 15.3846 36.8985V24.64C15.3852 24.4704 15.4528 24.308 15.5727 24.1881C15.6926 24.0682 15.8551 24.0006 16.0246 24H31.9754C32.1449 24.0006 32.3074 24.0682 32.4273 24.1881C32.5472 24.308 32.6148 24.4704 32.6154 24.64V36.8985ZM34.6154 20.3015C34.2388 20.3318 33.8621 20.2458 33.5359 20.0552C33.2098 19.8646 32.95 19.5785 32.7915 19.2356C32.6331 18.8927 32.5837 18.5094 32.6499 18.1375C32.7162 17.7656 32.8949 17.423 33.162 17.1559C33.4292 16.8888 33.7718 16.71 34.1437 16.6438C34.5156 16.5775 34.8989 16.627 35.2418 16.7854C35.5847 16.9438 35.8708 17.2036 36.0614 17.5298C36.252 17.8559 36.338 18.2327 36.3077 18.6092C36.2726 19.0463 36.083 19.4567 35.7729 19.7667C35.4628 20.0768 35.0525 20.2664 34.6154 20.3015ZM30.7692 8H17.2308C16.1954 8.00154 15.1951 8.37536 14.4125 9.05321C13.6298 9.73106 13.117 10.6678 12.9677 11.6923H35.0323C34.883 10.6678 34.3702 9.73106 33.5875 9.05321C32.8049 8.37536 31.8046 8.00154 30.7692 8Z" fill="#4A4A4A"/>
</svg>
