<svg width="64" height="64" viewBox="0 0 64 64" fill="none" xmlns="http://www.w3.org/2000/svg">
<g clip-path="url(#clip0_1233_1293)">
<path d="M31.2871 62C47.8557 62 61.2871 48.5685 61.2871 32C61.2871 15.4315 47.8557 2 31.2871 2C14.7186 2 1.28711 15.4315 1.28711 32C1.28711 48.5685 14.7186 62 31.2871 62Z" fill="white"/>
<path d="M31.2871 62C47.8557 62 61.2871 48.5685 61.2871 32C61.2871 15.4315 47.8557 2 31.2871 2C14.7186 2 1.28711 15.4315 1.28711 32C1.28711 48.5685 14.7186 62 31.2871 62Z" fill="#FF6600" fill-opacity="0.2"/>
<path d="M21.8845 18.2001C18.6845 20.9001 14.3845 22.1001 10.1845 21.3001C9.58455 21.2001 9.08455 23.3001 9.78455 23.5001C14.5845 24.4001 19.5845 23.0001 23.2845 19.9001C23.7845 19.4001 22.2845 17.8001 21.8845 18.2001ZM52.3845 21.2001C48.1845 21.9001 43.8846 20.8001 40.6846 18.1001C40.2846 17.7001 38.6846 19.3001 39.2846 19.8001C42.9846 23.0001 47.9846 24.3001 52.7845 23.4001C53.4846 23.2001 52.9846 21.1001 52.3845 21.2001Z" fill="#FF6600"/>
<path d="M45.8846 42.4001C45.3846 41.8001 44.3846 41.6001 43.6846 42.1001L39.4846 44.9001C38.7846 45.4001 37.6846 45.3001 37.0846 44.8001L32.4846 40.9001C31.8846 40.4001 30.8846 40.4001 30.1846 40.9001L25.5846 44.8001C24.9846 45.3001 23.8846 45.4001 23.1846 44.9001L18.8846 42.1001C18.1846 41.6001 17.1846 41.8001 16.6846 42.4001L12.2846 47.6001C11.7846 48.2001 11.8846 48.4001 12.5846 48.0001L16.3846 45.9001C17.0846 45.5001 18.1846 45.6001 18.7846 46.2001L23.3846 50.7001C23.9846 51.3001 24.9846 51.3001 25.6846 50.8001L30.1846 47.4001C30.8846 46.9001 31.8846 46.9001 32.5846 47.4001L36.9846 50.8001C37.6846 51.3001 38.6846 51.2001 39.2846 50.7001L43.8846 46.2001C44.4846 45.6001 45.5846 45.5001 46.2846 45.9001L50.0846 48.0001C50.7846 48.4001 50.9846 48.2001 50.3846 47.6001L45.8846 42.4001ZM50.9846 28.1001C51.5846 28.4001 51.2846 29.1001 50.7846 29.2001C48.0846 29.6001 45.2846 30.1001 42.4846 31.6001C46.4846 32.3001 49.6846 34.3001 51.4846 36.4001C51.8846 36.9001 51.3846 37.5001 50.9846 37.4001C46.1846 35.7001 41.2846 34.7001 35.1846 35.4001C34.6846 35.4001 34.2846 35.2001 34.3846 34.7001C35.9846 27.4001 45.2846 24.7001 50.9846 28.1001ZM11.5846 28.1001C10.9846 28.4001 11.2846 29.1001 11.7846 29.2001C14.4846 29.6001 17.2846 30.1001 20.0846 31.6001C16.0846 32.3001 12.8846 34.3001 11.0846 36.4001C10.6846 36.9001 11.1846 37.5001 11.5846 37.4001C16.3846 35.7001 21.2846 34.7001 27.3846 35.4001C27.8846 35.4001 28.2846 35.2001 28.1846 34.7001C26.5846 27.4001 17.2846 24.7001 11.5846 28.1001Z" fill="#FF6600"/>
</g>
<defs>
<clipPath id="clip0_1233_1293">
<rect width="64" height="64" fill="white"/>
</clipPath>
</defs>
</svg>
