<svg width="48" height="48" viewBox="0 0 48 48" fill="none" xmlns="http://www.w3.org/2000/svg">
<path d="M30.8702 28.1258H29.4248L28.9125 27.6318C30.7677 25.4803 31.7872 22.7334 31.785 19.8925C31.785 17.5404 31.0875 15.2411 29.7808 13.2854C28.474 11.3297 26.6166 9.80538 24.4436 8.90527C22.2705 8.00515 19.8793 7.76964 17.5724 8.22852C15.2655 8.68739 13.1464 9.82004 11.4832 11.4832C9.82004 13.1464 8.68739 15.2655 8.22852 17.5724C7.76964 19.8793 8.00515 22.2705 8.90527 24.4436C9.80538 26.6166 11.3297 28.474 13.2854 29.7808C15.2411 31.0875 17.5404 31.785 19.8925 31.785C22.8382 31.785 25.546 30.7055 27.6318 28.9125L28.1258 29.4248V30.8702L37.2739 40L40 37.2739L30.8702 28.1258ZM19.8925 28.1258C15.3368 28.1258 11.6592 24.4483 11.6592 19.8925C11.6592 15.3368 15.3368 11.6592 19.8925 11.6592C24.4483 11.6592 28.1258 15.3368 28.1258 19.8925C28.1258 24.4483 24.4483 28.1258 19.8925 28.1258Z" fill="#522A70"/>
</svg>
