<svg width="48" height="48" viewBox="0 0 48 48" fill="none" xmlns="http://www.w3.org/2000/svg">
<path d="M8 38.0002H15.6C17.84 38.0002 18.96 38.0002 19.82 37.5642C20.572 37.1802 21.184 36.5682 21.568 35.8162C22.004 34.9602 22.004 33.8402 22.004 31.5962V16.3962C22.004 14.1562 22.004 13.0362 21.568 12.1762C21.1845 11.4236 20.5726 10.8117 19.82 10.4282C18.964 9.99219 17.844 9.99219 15.6 9.99219H8V11.9922H15.6C16.754 11.9922 17.498 11.9922 18.06 12.0402C18.604 12.0842 18.804 12.1602 18.904 12.2102C19.28 12.4022 19.586 12.7102 19.778 13.0842C19.828 13.1842 19.904 13.3842 19.948 13.9282C19.994 14.4942 19.996 15.2402 19.996 16.3882V31.5882C19.996 32.7422 19.996 33.4882 19.948 34.0482C19.904 34.5922 19.828 34.7922 19.778 34.8922C19.5863 35.2685 19.2803 35.5744 18.904 35.7662C18.804 35.8162 18.604 35.8922 18.06 35.9362C17.494 35.9822 16.748 35.9842 15.6 35.9842H8V38.0002ZM40 10.0002H32.4C30.16 10.0002 29.04 10.0002 28.18 10.4362C27.4274 10.8197 26.8155 11.4316 26.432 12.1842C25.996 13.0402 25.996 14.1602 25.996 16.4042V31.6042C25.996 33.8442 25.996 34.9642 26.432 35.8242C26.816 36.5762 27.428 37.1882 28.18 37.5722C29.036 38.0082 30.156 38.0082 32.4 38.0082H40V36.0082H32.4C31.246 36.0082 30.502 36.0082 29.94 35.9602C29.396 35.9162 29.196 35.8402 29.096 35.7902C28.7197 35.5984 28.4137 35.2925 28.222 34.9162C28.172 34.8162 28.096 34.6162 28.052 34.0722C28.0063 33.253 27.9903 32.4325 28.004 31.6122V16.4122C28.004 15.2582 28.004 14.5122 28.052 13.9522C28.096 13.4082 28.172 13.2082 28.222 13.1082C28.414 12.7322 28.72 12.4262 29.096 12.2342C29.196 12.1842 29.396 12.1082 29.94 12.0642C30.506 12.0182 31.252 12.0162 32.4 12.0162H40V10.0002Z" fill="#4A4A4A"/>
<path d="M16 17C16 16.7348 15.8946 16.4804 15.7071 16.2929C15.5196 16.1054 15.2652 16 15 16H8V18H15C15.2652 18 15.5196 17.8946 15.7071 17.7071C15.8946 17.5196 16 17.2652 16 17ZM15 22C15.2652 22 15.5196 22.1054 15.7071 22.2929C15.8946 22.4804 16 22.7348 16 23C16 23.2652 15.8946 23.5196 15.7071 23.7071C15.5196 23.8946 15.2652 24 15 24H8V22H15ZM16 29C16 28.7348 15.8946 28.4804 15.7071 28.2929C15.5196 28.1054 15.2652 28 15 28H8V30H15C15.2652 30 15.5196 29.8946 15.7071 29.7071C15.8946 29.5196 16 29.2652 16 29ZM33 16C32.7348 16 32.4804 16.1054 32.2929 16.2929C32.1054 16.4804 32 16.7348 32 17C32 17.2652 32.1054 17.5196 32.2929 17.7071C32.4804 17.8946 32.7348 18 33 18H40V16H33ZM32 23C32 22.7348 32.1054 22.4804 32.2929 22.2929C32.4804 22.1054 32.7348 22 33 22H40V24H33C32.7348 24 32.4804 23.8946 32.2929 23.7071C32.1054 23.5196 32 23.2652 32 23ZM33 28C32.7348 28 32.4804 28.1054 32.2929 28.2929C32.1054 28.4804 32 28.7348 32 29C32 29.2652 32.1054 29.5196 32.2929 29.7071C32.4804 29.8946 32.7348 30 33 30H40V28H33Z" fill="#4A4A4A"/>
<path d="M8 38.0002H15.6C17.84 38.0002 18.96 38.0002 19.82 37.5642C20.572 37.1802 21.184 36.5682 21.568 35.8162C22.004 34.9602 22.004 33.8402 22.004 31.5962V16.3962C22.004 14.1562 22.004 13.0362 21.568 12.1762C21.1845 11.4236 20.5726 10.8117 19.82 10.4282C18.964 9.99219 17.844 9.99219 15.6 9.99219H8V11.9922H15.6C16.754 11.9922 17.498 11.9922 18.06 12.0402C18.604 12.0842 18.804 12.1602 18.904 12.2102C19.28 12.4022 19.586 12.7102 19.778 13.0842C19.828 13.1842 19.904 13.3842 19.948 13.9282C19.994 14.4942 19.996 15.2402 19.996 16.3882V31.5882C19.996 32.7422 19.996 33.4882 19.948 34.0482C19.904 34.5922 19.828 34.7922 19.778 34.8922C19.5863 35.2685 19.2803 35.5744 18.904 35.7662C18.804 35.8162 18.604 35.8922 18.06 35.9362C17.494 35.9822 16.748 35.9842 15.6 35.9842H8V38.0002ZM40 10.0002H32.4C30.16 10.0002 29.04 10.0002 28.18 10.4362C27.4274 10.8197 26.8155 11.4316 26.432 12.1842C25.996 13.0402 25.996 14.1602 25.996 16.4042V31.6042C25.996 33.8442 25.996 34.9642 26.432 35.8242C26.816 36.5762 27.428 37.1882 28.18 37.5722C29.036 38.0082 30.156 38.0082 32.4 38.0082H40V36.0082H32.4C31.246 36.0082 30.502 36.0082 29.94 35.9602C29.396 35.9162 29.196 35.8402 29.096 35.7902C28.7197 35.5984 28.4137 35.2925 28.222 34.9162C28.172 34.8162 28.096 34.6162 28.052 34.0722C28.0063 33.253 27.9903 32.4325 28.004 31.6122V16.4122C28.004 15.2582 28.004 14.5122 28.052 13.9522C28.096 13.4082 28.172 13.2082 28.222 13.1082C28.414 12.7322 28.72 12.4262 29.096 12.2342C29.196 12.1842 29.396 12.1082 29.94 12.0642C30.506 12.0182 31.252 12.0162 32.4 12.0162H40V10.0002Z" stroke="#4A4A4A"/>
<path d="M16 17C16 16.7348 15.8946 16.4804 15.7071 16.2929C15.5196 16.1054 15.2652 16 15 16H8V18H15C15.2652 18 15.5196 17.8946 15.7071 17.7071C15.8946 17.5196 16 17.2652 16 17ZM15 22C15.2652 22 15.5196 22.1054 15.7071 22.2929C15.8946 22.4804 16 22.7348 16 23C16 23.2652 15.8946 23.5196 15.7071 23.7071C15.5196 23.8946 15.2652 24 15 24H8V22H15ZM16 29C16 28.7348 15.8946 28.4804 15.7071 28.2929C15.5196 28.1054 15.2652 28 15 28H8V30H15C15.2652 30 15.5196 29.8946 15.7071 29.7071C15.8946 29.5196 16 29.2652 16 29ZM33 16C32.7348 16 32.4804 16.1054 32.2929 16.2929C32.1054 16.4804 32 16.7348 32 17C32 17.2652 32.1054 17.5196 32.2929 17.7071C32.4804 17.8946 32.7348 18 33 18H40V16H33ZM32 23C32 22.7348 32.1054 22.4804 32.2929 22.2929C32.4804 22.1054 32.7348 22 33 22H40V24H33C32.7348 24 32.4804 23.8946 32.2929 23.7071C32.1054 23.5196 32 23.2652 32 23ZM33 28C32.7348 28 32.4804 28.1054 32.2929 28.2929C32.1054 28.4804 32 28.7348 32 29C32 29.2652 32.1054 29.5196 32.2929 29.7071C32.4804 29.8946 32.7348 30 33 30H40V28H33Z" stroke="#4A4A4A"/>
</svg>
