<svg width="32" height="24" viewBox="0 0 32 24" fill="none" xmlns="http://www.w3.org/2000/svg">
<path d="M25.75 0L24.5462 3.5467L20.9348 4.72893V6.13803L24.5462 7.32026L25.75 10.867H27.1848L28.3886 7.32026L32 6.13803V4.72893L28.3886 3.5467L27.1848 0H25.75Z" fill="#522A70"/>
<path d="M0 1.72017H9.07452V4.69081H6.04968V21.0294H9.07452V24H0V21.0294H3.02484V4.69081H0V1.72017Z" fill="#522A70"/>
<path d="M15.6607 12.6443L17.4317 7.42661H18.8665L20.6374 12.6443L25.9503 14.3835V15.7926L20.6374 17.5318L18.8665 22.7495H17.4317L15.6607 17.5318L10.3479 15.7926V14.3835L15.6607 12.6443Z" fill="#522A70"/>
</svg>
