<svg width="22" height="17" viewBox="0 0 22 17" fill="none" xmlns="http://www.w3.org/2000/svg">
<path d="M17.0257 0L16.2297 2.38783L13.8419 3.18377V4.13246L16.2297 4.9284L17.0257 7.31623H17.9744L18.7703 4.9284L21.1581 4.13246V3.18377L18.7703 2.38783L17.9744 0H17.0257Z" fill="#522A70"/>
<path d="M0 1.15811H6V3.15811H4V14.1581H6V16.1581H0V14.1581H2V3.15811H0V1.15811Z" fill="#522A70"/>
<path d="M10.3547 8.51283L11.5257 5H12.4744L13.6453 8.51283L17.1581 9.68377V10.6325L13.6453 11.8034L12.4744 15.3162H11.5257L10.3547 11.8034L6.84192 10.6325V9.68377L10.3547 8.51283Z" fill="#522A70"/>
</svg>
