<svg width="35" height="35" viewBox="0 0 35 35" fill="none" xmlns="http://www.w3.org/2000/svg">
<path d="M13.6637 22.8245C16.1283 22.0208 15.4318 21.4314 13.0743 20.5206C11.9492 20.092 12.6457 19.1812 12.5921 18.4846C12.5921 18.1632 11.2527 18.2167 11.3598 16.9309C11.4134 16.02 13.3958 14.7342 13.9316 14.1984C14.253 13.8769 13.2886 13.0197 13.9852 12.2696C14.896 11.2516 15.0567 9.42993 15.5925 8.41195C15.5925 8.41195 15.1639 7.76901 15.4853 7.39396C18.2714 4.28643 28.612 4.6079 31.2909 9.21562C34.2377 14.4127 34.2913 21.5386 28.1298 25.3962C25.3973 27.1107 28.8799 33.2186 28.8799 33.2186H18.0035C18.0035 32.2006 19.2358 28.4502 17.0927 28.6109C15.271 28.7716 12.9672 28.6645 13.1815 26.5749C13.2351 25.932 13.2886 25.3962 12.86 24.8604C12.4314 24.3782 11.7885 23.4138 13.6637 22.8245ZM11.1991 21.8601L1.07283 23.1995V20.5206L11.1991 21.8601ZM2.94806 30.5933L1.8765 28.2894L11.1991 23.2531L2.94806 30.5933ZM1.8765 15.4307L2.94806 13.1268L11.1991 20.4134L1.8765 15.4307Z" fill="#5D6D74"/>
</svg>
