<svg width="29" height="32" viewBox="0 0 29 32" fill="none" xmlns="http://www.w3.org/2000/svg">
<path fill-rule="evenodd" clip-rule="evenodd" d="M4.32915 23.0227L5.77221 18.7189H7.58719L9.03024 23.0227L13.3594 24.4573V26.2616L9.03024 27.6962L7.58719 32H5.77221L4.32915 27.6962L0 26.2616V24.4573L4.32915 23.0227Z" fill="#522A70"/>
<path d="M16.7314 9.67382e-05C16.6323 -4.82858e-05 16.5308 -2.80288e-07 16.4267 4.89603e-05L16.2746 9.67382e-05H16.7314Z" fill="#522A70"/>
<path d="M16.2455 9.99707e-05L12.6722 9.92189e-05C11.3888 7.90021e-05 10.3296 6.23744e-05 9.46681 0.0701451C8.57066 0.142935 7.74688 0.299155 6.97311 0.691101C5.77316 1.29892 4.79758 2.26879 4.18617 3.46171C3.79192 4.23095 3.63477 5.0499 3.56156 5.9408C3.49106 6.79857 3.49108 7.85155 3.4911 9.12738V15.8497H9.07115L10.6654 20.6046L16.2455 22.1895V28.5294H19.8188C21.1022 28.5294 22.1614 28.5294 23.0242 28.4593C23.9203 28.3865 24.7441 28.2303 25.5179 27.8384C26.7178 27.2305 27.6934 26.2607 28.3048 25.0678C28.6991 24.2985 28.8562 23.4796 28.9294 22.5887C28.9999 21.7309 28.9999 20.6779 28.9999 19.4021V12.6798H17.8398C16.9593 12.6798 16.2455 11.9702 16.2455 11.0948V9.99707e-05Z" fill="#522A70"/>
<path d="M28.9999 12.6611L29 12.4996C29 12.3954 29 12.2937 28.9999 12.1945V12.6611Z" fill="#522A70"/>
<path d="M28.6844 9.50985C28.5299 9.04005 28.3205 8.58925 28.0602 8.16683C27.6638 7.52378 27.1226 6.98632 26.4064 6.275L22.688 2.5784C21.9725 1.86639 21.4319 1.3284 20.785 0.934338C20.3601 0.675479 19.9067 0.467335 19.4341 0.313788V9.50985H28.6844Z" fill="#522A70"/>
</svg>
