<svg width="19" height="21" viewBox="0 0 19 21" fill="none" xmlns="http://www.w3.org/2000/svg">
<path fill-rule="evenodd" clip-rule="evenodd" d="M2.71539 14.5257L3.62053 11.8103H4.75895L5.66408 14.5257L8.37947 15.4309V16.5693L5.66408 17.4744L4.75895 20.1898H3.62053L2.71539 17.4744L0 16.5693V15.4309L2.71539 14.5257Z" fill="#522A70"/>
<path d="M10.4945 6.10352e-05C10.4324 -3.0465e-05 10.3687 -1.76842e-07 10.3034 3.08906e-05L10.208 6.10352e-05H10.4945Z" fill="#522A70"/>
<path d="M10.1897 6.30746e-05L7.94844 6.26003e-05C7.14347 4.98449e-05 6.47911 3.9354e-05 5.93791 0.0442567C5.37581 0.0901819 4.85911 0.188746 4.37378 0.436037C3.62113 0.81953 3.0092 1.43145 2.62571 2.1841C2.37842 2.66944 2.27986 3.18614 2.23393 3.74824C2.18971 4.28943 2.18972 4.95378 2.18974 5.75875V10.0001H5.68974L6.68974 13.0001L10.1897 14.0001V18.0001H12.4311C13.236 18.0001 13.9004 18.0001 14.4416 17.9559C15.0037 17.9099 15.5204 17.8114 16.0057 17.5641C16.7583 17.1806 17.3703 16.5687 17.7538 15.816C18.0011 15.3307 18.0996 14.814 18.1455 14.2519C18.1898 13.7107 18.1898 13.0463 18.1897 12.2414V8.00006H11.1897C10.6375 8.00006 10.1897 7.55235 10.1897 7.00006V6.30746e-05Z" fill="#522A70"/>
<path d="M18.1897 7.98829L18.1898 7.8864C18.1898 7.82062 18.1898 7.75648 18.1897 7.69387V7.98829Z" fill="#522A70"/>
<path d="M17.9918 6.00006C17.8949 5.70365 17.7636 5.41923 17.6003 5.15271C17.3517 4.74699 17.0122 4.40789 16.563 3.95909L14.2307 1.62679C13.7819 1.17756 13.4428 0.838131 13.0371 0.589503C12.7706 0.426181 12.4862 0.294856 12.1897 0.197978V6.00006H17.9918Z" fill="#522A70"/>
</svg>
