<svg width="48" height="48" viewBox="0 0 48 48" fill="none" xmlns="http://www.w3.org/2000/svg">
<path d="M30.5068 8C31.9242 8 33.1468 7.99972 34.126 8.13086C35.1739 8.27165 36.1807 8.59032 36.9951 9.40625C37.8111 10.2222 38.1297 11.2274 38.2705 12.2754C38.4017 13.2546 38.4014 14.477 38.4014 15.8945V17.5195C38.4014 17.9439 38.2327 18.3513 37.9326 18.6514C37.6326 18.9513 37.226 19.1201 36.8018 19.1201C36.3774 19.1201 35.97 18.9514 35.6699 18.6514C35.3699 18.3513 35.2012 17.9438 35.2012 17.5195V16C35.2012 14.4464 35.1988 13.4413 35.0996 12.7021C35.0052 12.0079 34.854 11.7905 34.7324 11.6689C34.6108 11.5474 34.3934 11.3971 33.6992 11.3027C32.9616 11.2035 31.955 11.2002 30.4014 11.2002H25.6016V37.4004H32.002C32.5542 37.4004 33.002 37.8481 33.002 38.4004C33.0017 38.9525 32.5541 39.4004 32.002 39.4004H25.249C25.2127 39.4457 25.1743 39.4898 25.1328 39.5312C24.8328 39.8312 24.4262 39.9999 24.002 40C23.5776 40 23.1702 39.8313 22.8701 39.5312C22.8286 39.4898 22.7903 39.4457 22.7539 39.4004H16.002C15.4498 39.4004 15.0022 38.9525 15.002 38.4004C15.002 37.8481 15.4497 37.4004 16.002 37.4004H22.4014V11.2002H17.6016C16.048 11.2002 15.0429 11.2035 14.3037 11.3027C13.6095 11.3971 13.3921 11.5474 13.2705 11.6689C13.1489 11.7905 12.9987 12.008 12.9043 12.7021C12.8051 13.4397 12.8018 14.4464 12.8018 16V17.5195C12.8018 17.9439 12.633 18.3513 12.333 18.6514C12.0329 18.9514 11.6255 19.1201 11.2012 19.1201C10.777 19.12 10.3703 18.9513 10.0703 18.6514C9.77025 18.3513 9.60156 17.9439 9.60156 17.5195V15.8945C9.60156 14.477 9.60125 13.2546 9.73242 12.2754C9.87322 11.2274 10.1918 10.2206 11.0078 9.40625C11.8238 8.59025 12.829 8.27166 13.877 8.13086C14.8561 7.99969 16.0786 8 17.4961 8H30.5068Z" fill="#4A4A4A"/>
</svg>
