<svg width="51" height="51" viewBox="0 0 51 51" fill="none" xmlns="http://www.w3.org/2000/svg">
<rect width="50.2857" height="50.2857" rx="16" fill="#522A70"/>
<path d="M25.1934 40.7321C32.6492 40.7321 38.6934 34.664 38.6934 27.1786C38.6934 19.6931 32.6492 13.625 25.1934 13.625C17.7375 13.625 11.6934 19.6931 11.6934 27.1786C11.6934 34.664 17.7375 40.7321 25.1934 40.7321Z" fill="#428BC1"/>
<path d="M25.1973 37.7321C30.9963 37.7321 35.6973 33.0071 35.6973 27.1786C35.6973 21.35 30.9963 16.625 25.1973 16.625C19.3983 16.625 14.6973 21.35 14.6973 27.1786C14.6973 33.0071 19.3983 37.7321 25.1973 37.7321Z" fill="white"/>
<path d="M13.8876 33.8749L12.709 41.2142H13.7268C14.3697 41.2142 14.584 40.4642 15.0126 39.5535C15.5483 38.3749 16.834 35.3214 16.834 35.3214L13.8876 33.8749ZM36.4411 33.8749L37.6733 41.2142H36.6554C36.0126 41.2142 35.7983 40.4642 35.3697 39.5535C34.834 38.3749 33.5483 35.3214 33.5483 35.3214L36.4411 33.8749ZM15.1197 13.4642L18.2804 16.6249L16.6197 18.3392L13.459 15.1249L15.1197 13.4642ZM35.2626 13.4642L32.1018 16.6249L33.7626 18.3392L36.9233 15.1249L35.2626 13.4642Z" fill="#428BC1"/>
<path d="M11.0544 20.6428L20.483 11.0536C19.3044 9.82141 17.6437 9.07141 15.7687 9.07141C12.0723 9.07141 9.07227 12.125 9.07227 15.8214C9.07227 17.6964 9.82227 19.4107 11.0544 20.6428ZM29.6973 11.1071L39.233 20.5893C40.4651 19.3571 41.2151 17.6964 41.2151 15.8214C41.2151 12.125 38.2151 9.07141 34.4651 9.07141C32.5901 9.12498 30.9294 9.87498 29.6973 11.1071Z" fill="#B0B8B8"/>
<path d="M19.0371 32.9642L24.555 27.3392L25.1978 27.9821L19.68 33.5535L19.0371 32.9642Z" fill="#ED4C5C"/>
<path d="M25.197 29.1607C26.2917 29.1607 27.1791 28.2733 27.1791 27.1786C27.1791 26.0838 26.2917 25.1964 25.197 25.1964C24.1023 25.1964 23.2148 26.0838 23.2148 27.1786C23.2148 28.2733 24.1023 29.1607 25.197 29.1607Z" fill="#428BC1"/>
<path d="M24.1738 19.6249H26.156V27.6606H24.1738V19.6249ZM26.156 26.1606H30.1738V28.1427H26.156V26.1606Z" fill="#428BC1"/>
</svg>
