<svg width="51" height="51" viewBox="0 0 51 51" fill="none" xmlns="http://www.w3.org/2000/svg">
<rect x="0.75" y="0.75" width="48.79" height="48.79" rx="15.25" stroke="#522A70" stroke-width="1.5"/>
<path d="M25.1457 41.2184C34.0228 41.2184 41.2191 34.0221 41.2191 25.145C41.2191 16.2679 34.0228 9.07153 25.1457 9.07153C16.2686 9.07153 9.07227 16.2679 9.07227 25.145C9.07227 34.0221 16.2686 41.2184 25.1457 41.2184Z" fill="#8E1149"/>
<path d="M17.6986 29.8063L17.5914 29.1098H17.5378C17.1628 29.6992 16.5199 29.9671 15.8233 29.9671C14.591 29.9671 13.8945 28.9491 13.8945 27.7704C13.8945 25.9487 15.2876 25.0379 17.3771 25.0379V24.9307C17.3771 24.5557 17.2164 24.0199 16.3055 24.0199C15.7162 24.0199 15.0732 24.2878 14.6446 24.5557L14.3232 23.1626C14.7518 22.8947 15.5555 22.5197 16.627 22.5197C18.6094 22.5197 19.2523 23.9127 19.2523 25.5737V28.0382C19.2523 28.7348 19.2523 29.3777 19.3595 29.7527H17.6986V29.8063ZM17.4307 26.4845C16.4663 26.4845 15.7162 26.7524 15.7162 27.6096C15.7162 28.199 16.0377 28.4669 16.4663 28.4669C16.9485 28.4669 17.3235 28.0918 17.4307 27.6632C17.4307 27.556 17.4843 27.3953 17.4843 27.2882C17.4307 27.2346 17.4307 26.4845 17.4307 26.4845ZM23.2707 29.6992C23.2707 29.2705 23.3243 28.5205 23.3243 27.7704V20.323H24.9316V24.0199C25.2531 23.4841 25.7889 23.1091 26.539 23.1091C27.7713 23.1091 28.7357 24.3949 28.6821 26.3773C28.6821 28.6812 27.5034 29.8599 26.2711 29.8599C25.6817 29.8599 25.0924 29.592 24.7173 28.8419L24.6637 29.7527L23.2707 29.6992ZM24.9316 26.9667C24.9316 27.0738 24.9316 27.2346 24.9852 27.3417C25.0924 27.8775 25.4674 28.3061 25.9496 28.3061C26.6461 28.3061 27.0747 27.6632 27.0747 26.4845C27.0747 25.4665 26.6997 24.7164 25.9496 24.7164C25.521 24.7164 25.0924 25.145 24.9852 25.6808C24.9852 25.788 24.9316 25.8951 24.9316 26.0559V26.9667ZM36.3973 29.6456C36.0759 29.8063 35.5401 29.9671 34.8972 29.9671C33.1827 29.9671 32.0575 28.574 32.0575 26.3237C32.0575 24.2342 33.1291 22.5733 35.165 22.5733C35.5937 22.5733 36.0759 22.6804 36.4509 22.8412L36.183 24.5021C35.9687 24.3949 35.7008 24.2878 35.2722 24.2878C34.415 24.2878 33.8256 25.0915 33.8256 26.2702C33.8256 27.556 34.4685 28.2526 35.3258 28.2526C35.7008 28.2526 36.0223 28.1454 36.2902 28.0382L36.3973 29.6456Z" fill="white"/>
</svg>
